<?xml version="1.0" encoding="utf-8"?>
<!-- Generator: Adobe Illustrator 27.3.1, SVG Export Plug-In . SVG Version: 6.00 Build 0)  -->
<svg version="1.1" id="Layer_1" xmlns="http://www.w3.org/2000/svg" xmlns:xlink="http://www.w3.org/1999/xlink" x="0px" y="0px"
	 viewBox="0 0 50 50" style="enable-background:new 0 0 50 50;" xml:space="preserve">
<style type="text/css">
	.st0{fill:#F05525;}
	.st1{fill:#FFFFFF;}
</style>
<rect class="st0" width="50" height="50"/>
<g>
	<g>
		<path class="st1" d="M43.9,26l-3.3-6.4c-0.3-0.6-1-1-1.7-1H34h-3v9.2l13.5,1.1L43.9,26z M37.4,25.1c-0.9,0-1.6-0.6-1.8-1.5
			l-0.5-2.5h4.3l1.9,4H37.4z"/>
		<rect x="31" y="16.5" class="st1" width="1.2" height="15.4"/>
		<path class="st1" d="M32,17.2h-0.8v-1.6c0-0.8-0.6-1.4-1.4-1.4v-0.8c1.2,0,2.2,1,2.2,2.2V17.2z"/>
		<path class="st1" d="M40.3,30.8c-1.6,0-2.9,1.3-2.9,2.9c0,1.6,1.3,2.9,2.9,2.9c1.6,0,2.9-1.3,2.9-2.9
			C43.2,32.1,41.9,30.8,40.3,30.8z M40.3,35.5c-1,0-1.8-0.8-1.8-1.8c0-1,0.8-1.8,1.8-1.8c1,0,1.8,0.8,1.8,1.8
			C42,34.7,41.2,35.5,40.3,35.5z"/>
		<g>
			<path class="st1" d="M45.4,31.8H45l0,0c-0.6-0.7-1.3-1.3-2.2-1.8c0.7,0,1.4,0.2,2,0.4l-0.1-0.9c-0.1-0.6-0.4-1.1-0.8-1.5
				c-0.4-0.4-0.9-0.6-1.5-0.7l-12.3-1.2v-7.2c0-0.9-0.8-1.7-1.7-1.7H5.9c-0.9,0-1.7,0.8-1.7,1.7v0.9h22.1l-0.8,0.8H4.2v1.6h19.7
				l-0.8,0.8H4.2v1.6h17.3l-0.8,0.8H4.2V27h14.9l-0.8,0.8H4.2v5.8h3c0-0.1,0-0.3,0-0.5c0-1.6,1.3-2.9,2.9-2.9c0.6,0,1.2,0.2,1.7,0.6
				h12.7l0.3,0.3H12.2c0.5,0.5,0.9,1.3,0.9,2.1c0,0.2,0,0.3,0,0.5h9.7v-0.2H29h1h7.3c0-0.1,0-0.2,0-0.3c0-1.6,1.3-2.9,2.9-2.9
				c1.6,0,2.9,1.3,2.9,2.9c0,0.2,0,0.4-0.1,0.6h2.3c0.2,0,0.4-0.2,0.4-0.4v-1.2C45.8,32,45.6,31.8,45.4,31.8z M23,32.5
				c-0.1-0.1-0.2-0.2-0.3-0.3h11.9l0.3,0.3H23z"/>
			<path class="st1" d="M10.1,30.8c-1.6,0-2.9,1.3-2.9,2.9c0,1.6,1.3,2.9,2.9,2.9s2.9-1.3,2.9-2.9C13.1,32.1,11.7,30.8,10.1,30.8z
				 M10.1,35.5c-1,0-1.8-0.8-1.8-1.8c0-1,0.8-1.8,1.8-1.8c1,0,1.8,0.8,1.8,1.8C11.9,34.7,11.1,35.5,10.1,35.5z"/>
		</g>
	</g>
</g>
</svg>
