<svg width="144" height="144" viewBox="0 0 144 144" fill="none" xmlns="http://www.w3.org/2000/svg">
<path d="M139.864 16.4666L139.7 0.0218057L123.42 16.6305L139.864 16.4666Z" fill="#182D4C" fill-opacity="0.7"/>
<path d="M115.47 41.3705L115.306 24.908L99.025 41.5345L115.47 41.3705Z" fill="#182D4C" fill-opacity="0.7"/>
<path d="M91.0572 66.2568L90.8933 49.812L74.6125 66.4207L91.0572 66.2568Z" fill="#182D4C" fill-opacity="0.7"/>
<path d="M66.6448 91.1609L66.4809 74.7162L50.2001 91.3249L66.6448 91.1609Z" fill="#182D4C" fill-opacity="0.7"/>
<path d="M42.2501 116.047L42.0861 99.6023L25.8054 116.211L42.2501 116.047Z" fill="#182D4C" fill-opacity="0.7"/>
<path d="M17.8378 140.951L17.6738 124.506L1.39301 141.115L17.8378 140.951Z" fill="#182D4C" fill-opacity="0.7"/>
<path d="M140.895 66.2932L140.73 49.8307L124.45 66.4572L140.895 66.2932Z" fill="#182D4C" fill-opacity="0.7"/>
<path d="M116.482 91.1796L116.318 74.7348L100.037 91.3435L116.482 91.1796Z" fill="#182D4C" fill-opacity="0.7"/>
<path d="M92.0696 116.084L91.9056 99.6389L75.6248 116.248L92.0696 116.084Z" fill="#182D4C" fill-opacity="0.7"/>
<path d="M67.6749 140.97L67.5109 124.525L51.2301 141.134L67.6749 140.97Z" fill="#182D4C" fill-opacity="0.7"/>
<path d="M141.907 116.102L141.743 99.6576L125.462 116.266L141.907 116.102Z" fill="#182D4C" fill-opacity="0.7"/>
<path d="M117.494 141.006L117.33 124.562L101.05 141.17L117.494 141.006Z" fill="#182D4C" fill-opacity="0.7"/>
<path d="M141.098 42.0928L140.934 25.6481L124.653 42.2568L141.098 42.0928Z" fill="#182D4C" fill-opacity="0.7"/>
<path d="M116.703 66.979L116.539 50.5342L100.258 67.1429L116.703 66.979Z" fill="#182D4C" fill-opacity="0.7"/>
<path d="M92.2906 91.8831L92.1266 75.4383L75.8459 92.0471L92.2906 91.8831Z" fill="#182D4C" fill-opacity="0.7"/>
<path d="M67.8958 116.769L67.7319 100.324L51.4333 116.933L67.8958 116.769Z" fill="#182D4C" fill-opacity="0.7"/>
<path d="M43.4835 141.673L43.3195 125.229L27.0387 141.837L43.4835 141.673Z" fill="#182D4C" fill-opacity="0.7"/>
<path d="M141.392 91.1979L141.228 74.7532L124.947 91.3619L141.392 91.1979Z" fill="#182D4C" fill-opacity="0.7"/>
<path d="M116.997 116.084L116.833 99.6393L100.552 116.248L116.997 116.084Z" fill="#182D4C" fill-opacity="0.7"/>
<path d="M92.5846 140.988L92.4207 124.543L76.1399 141.152L92.5846 140.988Z" fill="#182D4C" fill-opacity="0.7"/>
<path d="M143.302 141.869L143.138 125.425L126.839 142.033L143.302 141.869Z" fill="#182D4C" fill-opacity="0.7"/>
</svg>
